# xmcd
#
# Track frame offsets:
#  150
#  15810
#  36773
#  48507
#  68052
#  86621
#  108322
#  123241
#  143263
#  153685
#  167329
#
# Disc length: 2366 seconds
#
# Revision: 0
# Processed by: cddbd v1.4PL0 Copyright (c) Steve Scherf et al.
# Submitted via: AltoMP3_Maker 3.0
#
DISCID=7a093c0b
DTITLE=Doc Wesson - Tacky Tunes from Texas
DYEAR=1900
DGENRE=
TTITLE0=Bitch and Moan
TTITLE1=Discount Love Affair
TTITLE2=Trailer Park Woman
TTITLE3=Here's To You
TTITLE4=The Fisherman
TTITLE5=Too Much Dickle
TTITLE6=Good Ol Boy
TTITLE7=Breakfast Man
TTITLE8=The Dolly Parton Song (radio version)
TTITLE9=Safe Sex
TTITLE10=The Dolly Parton Song (unrestrained version)
EXTD=
EXTT0=
EXTT1=
EXTT2=
EXTT3=
EXTT4=
EXTT5=
EXTT6=
EXTT7=
EXTT8=
EXTT9=
EXTT10=
PLAYORDER=
